<svg width="19" height="16" viewBox="0 0 19 16" fill="none" xmlns="http://www.w3.org/2000/svg">
<path d="M8.80078 1.84752C9.69283 0.940524 10.9058 0.428125 12.1914 0.428125C14.8159 0.428125 16.9508 2.56333 16.9508 5.18812C16.9505 6.52069 16.5198 7.89552 15.6809 9.27312C15.017 10.3631 14.0959 11.4598 12.9455 12.5334C10.9952 14.3535 9.01718 15.5063 8.99341 15.5201L8.99336 15.5201C8.93377 15.5547 8.8672 15.5719 8.80078 15.5719C8.73589 15.5719 8.6709 15.5554 8.6124 15.5225M8.80078 1.84752L8.68341 15.3903M8.80078 1.84752C7.90873 0.940494 6.69572 0.428125 5.41016 0.428125C2.78569 0.428125 0.650781 2.563 0.650781 5.1875C0.650781 6.7345 1.22885 8.33163 2.35308 9.93291L2.35308 9.93292C2.47508 10.1067 2.71482 10.1486 2.88853 10.0266L8.80078 1.84752ZM8.6124 15.5225C8.61102 15.5217 8.60964 15.521 8.60826 15.5202M8.6124 15.5225C8.61409 15.5234 8.61421 15.5234 8.61342 15.523C8.61253 15.5225 8.6105 15.5215 8.60826 15.5202M8.6124 15.5225C8.61147 15.5221 8.61004 15.5214 8.60803 15.5204L8.58364 15.5087C8.56242 15.4984 8.53201 15.4836 8.49314 15.464C8.41541 15.425 8.30415 15.3673 8.16462 15.2898C7.88559 15.1349 7.49357 14.9008 7.03055 14.5781C6.10467 13.9329 4.89383 12.9329 3.73484 11.5024M8.60826 15.5202C8.60825 15.5202 8.60824 15.5202 8.60823 15.5201L8.68341 15.3903M8.60826 15.5202L8.68341 15.3903M3.73484 11.5024L3.85137 11.4079M3.73484 11.5024C3.73484 11.5024 3.73483 11.5024 3.73483 11.5024L3.85137 11.4079M3.73484 11.5024C3.60117 11.3374 3.62655 11.0954 3.79151 10.9617L3.79152 10.9617C3.95638 10.8282 4.19846 10.8534 4.33214 11.0184L4.21559 11.1128L4.33214 11.0184C6.0847 13.1816 7.82249 14.178 8.61902 14.6347C8.68611 14.6731 8.74652 14.7078 8.7997 14.739C9.333 14.4095 10.8899 13.4015 12.4276 11.9652C13.289 11.1606 14.2295 10.1382 14.9539 8.97851C15.6786 7.81835 16.1818 6.52921 16.182 5.18803L3.85137 11.4079M3.85137 11.4079C6.05295 14.1253 8.44304 15.2746 8.66673 15.3822C8.67641 15.3868 8.68203 15.3896 8.68341 15.3903M9.09856 2.66587C9.86086 1.73207 10.9879 1.19687 12.1914 1.19687C14.3917 1.19687 16.182 2.98743 16.182 5.188L9.09856 2.66587Z" fill="white" stroke="white" stroke-width="0.3"/>
</svg>
