<svg xmlns="http://www.w3.org/2000/svg" fill="none" viewBox="0 0 24 24"><g clip-path="url(#a)"><mask id="b" width="22" height="22" x="-1" y="1.029"  maskUnits="userSpaceOnUse"><path fill="#fff" d="M-1 1.029h22v22H-1z"/><path d="M19.775 17.173a.351.351 0 0 0-.497-.013c-1.636 1.552-3.535 2.933-4.839 3.516a6.18 6.18 0 0 1-4.04.364 6.985 6.985 0 0 0 1.677-1.36c2.835-.36 4.87-2.405 4.955-2.492a.352.352 0 0 0-.502-.492c-.017.017-1.59 1.598-3.806 2.149a6.891 6.891 0 0 0 1.14-3.806 9.46 9.46 0 0 0-.04-.838.352.352 0 0 0-.701.063c.026.283.039.544.039.775a6.236 6.236 0 0 1-6.23 6.229 6.236 6.236 0 0 1-6.228-6.229c0-1.872.798-5.048 1.898-7.55 1.328-3.023 2.906-4.757 4.33-4.757 1.294 0 2.435 1.374 3.165 2.527a.352.352 0 1 0 .594-.376C9.491 2.99 8.227 2.03 6.932 2.03c-.957 0-1.908.534-2.827 1.587-.764.877-1.487 2.085-2.148 3.59C.805 9.828 0 13.05 0 15.039a6.94 6.94 0 0 0 6.932 6.932c.897 0 1.755-.171 2.543-.483.787.293 1.604.44 2.42.44.964 0 1.926-.204 2.832-.61 1.39-.623 3.32-2.02 5.035-3.648a.352.352 0 0 0 .013-.497Z"/></mask><path  d="M19.775 17.173a.351.351 0 0 0-.497-.013c-1.636 1.552-3.535 2.933-4.839 3.516a6.18 6.18 0 0 1-4.04.364 6.985 6.985 0 0 0 1.677-1.36c2.835-.36 4.87-2.405 4.955-2.492a.352.352 0 0 0-.502-.492c-.017.017-1.59 1.598-3.806 2.149a6.891 6.891 0 0 0 1.14-3.806 9.46 9.46 0 0 0-.04-.838.352.352 0 0 0-.701.063c.026.283.039.544.039.775a6.236 6.236 0 0 1-6.23 6.229 6.236 6.236 0 0 1-6.228-6.229c0-1.872.798-5.048 1.898-7.55 1.328-3.023 2.906-4.757 4.33-4.757 1.294 0 2.435 1.374 3.165 2.527a.352.352 0 1 0 .594-.376C9.491 2.99 8.227 2.03 6.932 2.03c-.957 0-1.908.534-2.827 1.587-.764.877-1.487 2.085-2.148 3.59C.805 9.828 0 13.05 0 15.039a6.94 6.94 0 0 0 6.932 6.932c.897 0 1.755-.171 2.543-.483.787.293 1.604.44 2.42.44.964 0 1.926-.204 2.832-.61 1.39-.623 3.32-2.02 5.035-3.648a.352.352 0 0 0 .013-.497Z"/><path  stroke-width=".4" d="M19.775 17.173a.351.351 0 0 0-.497-.013c-1.636 1.552-3.535 2.933-4.839 3.516a6.18 6.18 0 0 1-4.04.364 6.985 6.985 0 0 0 1.677-1.36c2.835-.36 4.87-2.405 4.955-2.492a.352.352 0 0 0-.502-.492c-.017.017-1.59 1.598-3.806 2.149a6.891 6.891 0 0 0 1.14-3.806 9.46 9.46 0 0 0-.04-.838.352.352 0 0 0-.701.063c.026.283.039.544.039.775a6.236 6.236 0 0 1-6.23 6.229 6.236 6.236 0 0 1-6.228-6.229c0-1.872.798-5.048 1.898-7.55 1.328-3.023 2.906-4.757 4.33-4.757 1.294 0 2.435 1.374 3.165 2.527a.352.352 0 1 0 .594-.376C9.491 2.99 8.227 2.03 6.932 2.03c-.957 0-1.908.534-2.827 1.587-.764.877-1.487 2.085-2.148 3.59C.805 9.828 0 13.05 0 15.039a6.94 6.94 0 0 0 6.932 6.932c.897 0 1.755-.171 2.543-.483.787.293 1.604.44 2.42.44.964 0 1.926-.204 2.832-.61 1.39-.623 3.32-2.02 5.035-3.648a.352.352 0 0 0 .013-.497Z" mask="url(#b)"/><mask id="c" width="15" height="12" x="9.787" y="5.046"  maskUnits="userSpaceOnUse"><path fill="#fff" d="M9.787 5.046h15v12h-15z"/><path d="M23.766 9.672c-.585-1.306-2.29-2.12-4.932-2.354-1.972-.175-4.453-.01-6.694.44a21.415 21.415 0 0 0-.687-1.519.351.351 0 1 0-.628.316c.918 1.826 1.7 4.173 2.093 6.277a.352.352 0 0 0 .691-.129c-.12-.644-.276-1.31-.46-1.977 3.806-1.355 6.66-.718 6.688-.711a.351.351 0 1 0 .161-.685c-.125-.03-3.055-.691-7.045.72a27.007 27.007 0 0 0-.553-1.628c2.146-.419 4.498-.57 6.372-.403 1.655.146 3.752.602 4.352 1.94.609 1.358-.422 3.61-2.827 6.178a.352.352 0 0 0 .513.48c1.533-1.636 3.955-4.715 2.956-6.945Z"/></mask><path  d="M23.766 9.672c-.585-1.306-2.29-2.12-4.932-2.354-1.972-.175-4.453-.01-6.694.44a21.415 21.415 0 0 0-.687-1.519.351.351 0 1 0-.628.316c.918 1.826 1.7 4.173 2.093 6.277a.352.352 0 0 0 .691-.129c-.12-.644-.276-1.31-.46-1.977 3.806-1.355 6.66-.718 6.688-.711a.351.351 0 1 0 .161-.685c-.125-.03-3.055-.691-7.045.72a27.007 27.007 0 0 0-.553-1.628c2.146-.419 4.498-.57 6.372-.403 1.655.146 3.752.602 4.352 1.94.609 1.358-.422 3.61-2.827 6.178a.352.352 0 0 0 .513.48c1.533-1.636 3.955-4.715 2.956-6.945Z"/><path  stroke-width=".4" d="M23.766 9.672c-.585-1.306-2.29-2.12-4.932-2.354-1.972-.175-4.453-.01-6.694.44a21.415 21.415 0 0 0-.687-1.519.351.351 0 1 0-.628.316c.918 1.826 1.7 4.173 2.093 6.277a.352.352 0 0 0 .691-.129c-.12-.644-.276-1.31-.46-1.977 3.806-1.355 6.66-.718 6.688-.711a.351.351 0 1 0 .161-.685c-.125-.03-3.055-.691-7.045.72a27.007 27.007 0 0 0-.553-1.628c2.146-.419 4.498-.57 6.372-.403 1.655.146 3.752.602 4.352 1.94.609 1.358-.422 3.61-2.827 6.178a.352.352 0 0 0 .513.48c1.533-1.636 3.955-4.715 2.956-6.945Z" mask="url(#c)"/><mask id="d" width="6" height="4" x="13.245" y="11.933"  maskUnits="userSpaceOnUse"><path fill="#fff" d="M13.245 11.933h6v4h-6z"/><path d="M19.003 13.13a.351.351 0 0 0-.47-.161l-4.091 2.01a.352.352 0 0 0 .31.632l4.09-2.01a.352.352 0 0 0 .161-.472Z"/></mask><path  d="M19.003 13.13a.351.351 0 0 0-.47-.161l-4.091 2.01a.352.352 0 0 0 .31.632l4.09-2.01a.352.352 0 0 0 .161-.472Z"/><path  stroke-width=".4" d="M19.003 13.13a.351.351 0 0 0-.47-.161l-4.091 2.01a.352.352 0 0 0 .31.632l4.09-2.01a.352.352 0 0 0 .161-.472Z" mask="url(#d)"/><mask id="e" width="5" height="14" x="1.801" y="4.189"  maskUnits="userSpaceOnUse"><path fill="#fff" d="M1.801 4.189h5v14h-5z"/><path d="M5.572 5.261a.352.352 0 0 0-.493.066c-.035.046-.864 1.143-1.515 3.146-.598 1.836-1.152 4.819-.398 8.6a.352.352 0 1 0 .69-.138c-.721-3.615-.2-6.461.366-8.212.613-1.9 1.408-2.959 1.416-2.97a.352.352 0 0 0-.066-.492Z"/></mask><path  d="M5.572 5.261a.352.352 0 0 0-.493.066c-.035.046-.864 1.143-1.515 3.146-.598 1.836-1.152 4.819-.398 8.6a.352.352 0 1 0 .69-.138c-.721-3.615-.2-6.461.366-8.212.613-1.9 1.408-2.959 1.416-2.97a.352.352 0 0 0-.066-.492Z"/><path  stroke-width=".4" d="M5.572 5.261a.352.352 0 0 0-.493.066c-.035.046-.864 1.143-1.515 3.146-.598 1.836-1.152 4.819-.398 8.6a.352.352 0 1 0 .69-.138c-.721-3.615-.2-6.461.366-8.212.613-1.9 1.408-2.959 1.416-2.97a.352.352 0 0 0-.066-.492Z" mask="url(#e)"/><mask id="f" width="4" height="10" x="8.028" y="10.024"  maskUnits="userSpaceOnUse"><path fill="#fff" d="M8.028 10.024h4v10h-4z"/><path d="M11.596 14.139a9.803 9.803 0 0 0-.559-2.891.352.352 0 0 0-.655.256c.005.011.452 1.175.513 2.686.08 1.989-.512 3.615-1.76 4.833a.352.352 0 1 0 .49.503c1.383-1.349 2.064-3.212 1.971-5.387Z"/></mask><path  d="M11.596 14.139a9.803 9.803 0 0 0-.559-2.891.352.352 0 0 0-.655.256c.005.011.452 1.175.513 2.686.08 1.989-.512 3.615-1.76 4.833a.352.352 0 1 0 .49.503c1.383-1.349 2.064-3.212 1.971-5.387Z"/><path  stroke-width=".4" d="M11.596 14.139a9.803 9.803 0 0 0-.559-2.891.352.352 0 0 0-.655.256c.005.011.452 1.175.513 2.686.08 1.989-.512 3.615-1.76 4.833a.352.352 0 1 0 .49.503c1.383-1.349 2.064-3.212 1.971-5.387Z" mask="url(#f)"/><mask id="g" width="3" height="7" x="6.801" y="6.788"  maskUnits="userSpaceOnUse"><path fill="#fff" d="M6.801 6.788h3v7h-3z"/><path d="M8.504 8.127a.352.352 0 0 0-.703.025l.162 4.556a.352.352 0 0 0 .703-.025l-.162-4.556Z"/></mask><path  d="M8.504 8.127a.352.352 0 0 0-.703.025l.162 4.556a.352.352 0 0 0 .703-.025l-.162-4.556Z"/><path  stroke-width=".4" d="M8.504 8.127a.352.352 0 0 0-.703.025l.162 4.556a.352.352 0 0 0 .703-.025l-.162-4.556Z" mask="url(#g)"/><mask id="h" width="4" height="4" x="2.863" y="17.357"  maskUnits="userSpaceOnUse"><path fill="#fff" d="M2.863 17.357h4v4h-4z"/><path d="M5.957 19.51c-.794-.288-1.47-1.025-1.482-1.038a.352.352 0 0 0-.521.472c.032.036.8.877 1.763 1.227a.35.35 0 0 0 .45-.21.352.352 0 0 0-.21-.45Z"/></mask><path  d="M5.957 19.51c-.794-.288-1.47-1.025-1.482-1.038a.352.352 0 0 0-.521.472c.032.036.8.877 1.763 1.227a.35.35 0 0 0 .45-.21.352.352 0 0 0-.21-.45Z"/><path  stroke-width=".4" d="M5.957 19.51c-.794-.288-1.47-1.025-1.482-1.038a.352.352 0 0 0-.521.472c.032.036.8.877 1.763 1.227a.35.35 0 0 0 .45-.21.352.352 0 0 0-.21-.45Z" mask="url(#h)"/><mask id="i" width="2" height="2" x="7.161" y="12.746"  maskUnits="userSpaceOnUse"><path fill="#fff" d="M7.161 12.746h2v2h-2z"/><path d="M8.513 13.746a.352.352 0 0 0-.352.352v.032a.351.351 0 1 0 .703 0v-.032a.352.352 0 0 0-.351-.352Z"/></mask><path  d="M8.513 13.746a.352.352 0 0 0-.352.352v.032a.351.351 0 1 0 .703 0v-.032a.352.352 0 0 0-.351-.352Z"/><path  stroke-width=".4" d="M8.513 13.746a.352.352 0 0 0-.352.352v.032a.351.351 0 1 0 .703 0v-.032a.352.352 0 0 0-.351-.352Z" mask="url(#i)"/><mask id="j" width="2" height="2" x="6.295" y="13.672"  maskUnits="userSpaceOnUse"><path fill="#fff" d="M6.295 13.672h2v2h-2z"/><path d="M7.646 14.672a.351.351 0 0 0-.351.352v.032a.352.352 0 1 0 .703 0v-.032a.352.352 0 0 0-.352-.352Z"/></mask><path  d="M7.646 14.672a.351.351 0 0 0-.351.352v.032a.352.352 0 1 0 .703 0v-.032a.352.352 0 0 0-.352-.352Z"/><path  stroke-width=".4" d="M7.646 14.672a.351.351 0 0 0-.351.352v.032a.352.352 0 1 0 .703 0v-.032a.352.352 0 0 0-.352-.352Z" mask="url(#j)"/><mask id="k" width="2" height="2" x="7.413" y="15.247"  maskUnits="userSpaceOnUse"><path fill="#fff" d="M7.413 15.247h2v2h-2z"/><path d="M8.765 16.247a.352.352 0 0 0-.352.352v.032a.352.352 0 1 0 .703 0v-.032a.352.352 0 0 0-.351-.352Z"/></mask><path  d="M8.765 16.247a.352.352 0 0 0-.352.352v.032a.352.352 0 1 0 .703 0v-.032a.352.352 0 0 0-.351-.352Z"/><path  stroke-width=".4" d="M8.765 16.247a.352.352 0 0 0-.352.352v.032a.352.352 0 1 0 .703 0v-.032a.352.352 0 0 0-.351-.352Z" mask="url(#k)"/></g><defs><clipPath id="a"><path fill="#fff" d="M0 0h24v24H0z"/></clipPath></defs></svg>